<svg width="280" height="70" viewBox="0 0 280 70" fill="none" xmlns="http://www.w3.org/2000/svg">
  <!-- Background Circle -->
  <circle cx="35" cy="35" r="30" fill="#10b981" opacity="0.08"/>
  
  <!-- Medical Cross -->
  <path d="M35 18 L35 52" stroke="#10b981" stroke-width="4" stroke-linecap="round"/>
  <path d="M20 35 L50 35" stroke="#10b981" stroke-width="4" stroke-linecap="round"/>
  
  <!-- Center Circle -->
  <circle cx="35" cy="35" r="4" fill="#10b981"/>
  
  <!-- Movement/Pilates Elements - Flowing Lines -->
  <path d="M42 22 Q48 20 50 25 Q48 30 42 28" fill="#10b981" opacity="0.6"/>
  <path d="M28 42 Q22 44 20 39 Q22 34 28 36" fill="#10b981" opacity="0.6"/>
  <path d="M45 40 Q50 42 51 47 Q48 50 45 46" fill="#059669" opacity="0.5"/>
  
  <!-- Leaf/Nature Element -->
  <path d="M25 25 Q20 22 18 27 Q20 30 25 28 Z" fill="#059669" opacity="0.4"/>
  
  <!-- Text -->
  <text x="75" y="28" font-family="system-ui, -apple-system, sans-serif" font-size="18" font-weight="700" fill="#1e293b" letter-spacing="-0.5">
    Ayaz &amp; Hatice
  </text>
  <text x="75" y="45" font-family="system-ui, -apple-system, sans-serif" font-size="12" font-weight="500" fill="#64748b">
    Fizyoterapi ve Tedavi Amaçlı Pilates
  </text>
  <text x="75" y="58" font-family="system-ui, -apple-system, sans-serif" font-size="10" fill="#10b981" font-style="italic">
    Sağlıklı Hareket İçin
  </text>
</svg>
